# xmcd
#
# Track frame offsets: 
#        150
#        16854
#        19210
#        25176
#        27204
#        34943
#        36747
#        37337
#        40576
#        41905
#        46106
#        49905
#        53845
#        61639
#        76154
#        79937
#        85482
#        87630
#        89568
#        90576
#        92460
#        94391
#        96189
#        101159
#        101717
#        103625
#        104669
#        113182
#        116252
#        126679
#        134252
#        147937
#        160773
#        169414
#        174300
#        177782
#        178721
#        182542
#        183903
#        186207
#        192222
#        194497
#        209334
#        217394
#        221310
#        228121
#        242828
#        250577
#
# Disc length: 3554 seconds
#
# Revision: 0
# Processed by: cddbd v1.5.2PL0 Copyright (c) Steve Scherf et al.
# Submitted via: ExactAudioCopy v0.99pb4
#
DISCID=a80de030
DTITLE=Stefan Grossman - Bottleneck Blues Guitar - Lesson Two
DYEAR=1900
DGENRE=Blues
TTITLE0=Fred McDowell performs You Got To Move
TTITLE1=Tuning to Open D tuning (D A D F# A D)
TTITLE2=Discussion on Fred McDowell's slide playing
TTITLE3=Plays You Got To Move
TTITLE4=Teaching of first phrase of You Got To Move
TTITLE5=Teaching of second phrase of You Got To Move
TTITLE6=Plays first and second phrases of You Got To Move
TTITLE7=Teaching of third phrase of You Got To Move
TTITLE8=Plays first three phrases of You Got To Move
TTITLE9=Teaching of fourth phrase of You Got To Move
TTITLE10=Teaching end phrase of You Got To Move
TTITLE11=Plays You Got To Move
TTITLE12=Introduction to Blind Willie Johnson's playing
TTITLE13=Blind Willie Johnson's recording of God Moves On The Water
TTITLE14=Plays God Moves On The Water
TTITLE15=Teaching of first phrase of verse of God Moves On The Water
TTITLE16=Teaching of second phrase of verse of God Moves On The Water
TTITLE17=Teaching of third phrase of verse of God Moves On The Water
TTITLE18=Plays first three phrases of verse of God Moves On The Water
TTITLE19=Teaching of fourth phrase of verse of God Moves On The Water
TTITLE20=Teaching of fifth phrase of verse of God Moves On The Water
TTITLE21=Plays verse of God Moves On The Water
TTITLE22=Teaching Of First Phrase Of Chorus Of God Moves On The Water
TTITLE23=Plays first phrase of chorus of God Moves On The Water
TTITLE24=Teaching of second phrase of chorus of God Moves On The Water
TTITLE25=Plays first two phrases of chorus of God Moves On The Water
TTITLE26=Teaching of third phrase of chorus of God Moves On The Water
TTITLE27=Plays last third phrase of chorus of God Moves On The Water
TTITLE28=Plays slowly complete arrangement of God Moves On The Water
TTITLE29=Performance from 1965 How To Play Blues Guitar of God Moves O
TTITLE29=n The Water
TTITLE30=Memphis Minnie's recording of Good Morning Little Schoolgirl
TTITLE31=Jo Ann Kelly and Stefan perform Good Morning Little Schoolgir
TTITLE31=l
TTITLE32=Plays Good Morning Little Schoolgirl
TTITLE33=Teaching of first phrase of Good Morning Little Schoolgirl
TTITLE34=Teaching of second phrase of Good Morning Little Schoolgirl
TTITLE35=Plays first two phrases of Good Morning Little Schoolgirl
TTITLE36=Teaching of third phrase of Good Morning Little Schoolgirl
TTITLE37=Teaching of fourth phrase of Good Morning Little Schoolgirl
TTITLE38=Plays first four phrases of Good Morning Little Schoolgirl
TTITLE39=Teaching of fifth phrase of Good Morning Little Schoolgirl
TTITLE40=Plays first five phrases of Good Morning Little Schoolgirl
TTITLE41=Teaching of last phrase of Good Morning Little Schoolgirl
TTITLE42=Plays slowly Good Morning Little Schoolgirl
TTITLE43=Plays up to tempo Good Morning Little Schoolgirl
TTITLE44=Plays Good Morning Little Schoolgirl leaving out some bass no
TTITLE44=tes
TTITLE45=Fred McDowell plays Good Morning Little Schoolgirl
TTITLE46=John Lee Hooker plays Good Morning Little Schoolgirl
TTITLE47=Teaching of various Fred McDowell licks
EXTD=
EXTT0=
EXTT1=
EXTT2=
EXTT3=
EXTT4=
EXTT5=
EXTT6=
EXTT7=
EXTT8=
EXTT9=
EXTT10=
EXTT11=
EXTT12=
EXTT13=
EXTT14=
EXTT15=
EXTT16=
EXTT17=
EXTT18=
EXTT19=
EXTT20=
EXTT21=
EXTT22=
EXTT23=
EXTT24=
EXTT25=
EXTT26=
EXTT27=
EXTT28=
EXTT29=
EXTT30=
EXTT31=
EXTT32=
EXTT33=
EXTT34=
EXTT35=
EXTT36=
EXTT37=
EXTT38=
EXTT39=
EXTT40=
EXTT41=
EXTT42=
EXTT43=
EXTT44=
EXTT45=
EXTT46=
EXTT47=
PLAYORDER=
